<svg width="88" height="88" viewBox="0 0 88 88" fill="none" xmlns="http://www.w3.org/2000/svg">
<rect width="88" height="88" rx="8" fill="#E1E1E1"/>
<path d="M62.6654 36.86C62.6411 36.6456 62.5941 36.4345 62.5254 36.23V36.02C62.4132 35.7801 62.2635 35.5596 62.082 35.3667V35.3667L48.082 21.3667C47.8891 21.1852 47.6686 21.0355 47.4287 20.9233H47.1954C46.9685 20.802 46.7246 20.7155 46.472 20.6667H32.332C30.4755 20.6667 28.695 21.4042 27.3823 22.7169C26.0695 24.0297 25.332 25.8102 25.332 27.6667V60.3333C25.332 62.1899 26.0695 63.9703 27.3823 65.2831C28.695 66.5958 30.4755 67.3333 32.332 67.3333H55.6654C57.5219 67.3333 59.3024 66.5958 60.6151 65.2831C61.9279 63.9703 62.6654 62.1899 62.6654 60.3333V37C62.6654 37 62.6654 37 62.6654 36.86ZM48.6654 28.6233L54.7087 34.6667H50.9987C50.3799 34.6667 49.7864 34.4208 49.3488 33.9832C48.9112 33.5457 48.6654 32.9522 48.6654 32.3333V28.6233ZM57.9987 60.3333C57.9987 60.9522 57.7529 61.5457 57.3153 61.9833C56.8777 62.4208 56.2842 62.6667 55.6654 62.6667H32.332C31.7132 62.6667 31.1197 62.4208 30.6821 61.9833C30.2445 61.5457 29.9987 60.9522 29.9987 60.3333V27.6667C29.9987 27.0478 30.2445 26.4543 30.6821 26.0168C31.1197 25.5792 31.7132 25.3333 32.332 25.3333H43.9987V32.3333C43.9987 34.1898 44.7362 35.9703 46.0489 37.2831C47.3617 38.5958 49.1422 39.3333 50.9987 39.3333H57.9987V60.3333ZM47.0087 49.3433L46.332 50.0433V44C46.332 43.3812 46.0862 42.7877 45.6486 42.3501C45.211 41.9125 44.6175 41.6667 43.9987 41.6667C43.3799 41.6667 42.7864 41.9125 42.3488 42.3501C41.9112 42.7877 41.6654 43.3812 41.6654 44V50.0433L40.9887 49.3433C40.5493 48.904 39.9534 48.6571 39.332 48.6571C38.7107 48.6571 38.1147 48.904 37.6754 49.3433C37.236 49.7827 36.9892 50.3786 36.9892 51C36.9892 51.6214 37.236 52.2173 37.6754 52.6567L42.342 57.3233C42.5639 57.5358 42.8256 57.7023 43.112 57.8133C43.3913 57.9368 43.6933 58.0005 43.9987 58.0005C44.3041 58.0005 44.6061 57.9368 44.8854 57.8133C45.1718 57.7023 45.4335 57.5358 45.6554 57.3233L50.322 52.6567C50.7614 52.2173 51.0082 51.6214 51.0082 51C51.0082 50.3786 50.7614 49.7827 50.322 49.3433C49.8827 48.904 49.2867 48.6571 48.6654 48.6571C48.044 48.6571 47.4481 48.904 47.0087 49.3433V49.3433Z" fill="#7E7E7E"/>
</svg>
